<?xml version="1.0" encoding="UTF-8" standalone="no"?>
<!DOCTYPE svg PUBLIC "-//W3C//DTD SVG 1.1//EN" "http://www.w3.org/Graphics/SVG/1.1/DTD/svg11.dtd">
<svg width="100%" height="100%" viewBox="0 0 1024 1024" version="1.1" xmlns="http://www.w3.org/2000/svg" xmlns:xlink="http://www.w3.org/1999/xlink" xml:space="preserve" xmlns:serif="http://www.serif.com/" style="fill-rule:evenodd;clip-rule:evenodd;stroke-linecap:round;stroke-miterlimit:1.5;">
    <g transform="matrix(1,0,0,1,-31.2427,-46.2039)">
        <g transform="matrix(0.141946,0.529751,-0.529751,0.141946,982.48,-181.983)">
            <path d="M1036.51,288.426C1186.91,350.633 1334.07,435.594 1463.14,534.737C1484.46,696.087 1484.46,866.009 1463.14,1027.36C1334.07,1126.5 1186.91,1211.46 1036.51,1273.67C886.117,1211.46 738.961,1126.5 609.89,1027.36C588.565,866.009 588.565,696.087 609.89,534.737C738.961,435.594 886.117,350.633 1036.51,288.426Z" style="fill:none;stroke:rgb(74,176,253);stroke-width:127.64px;"/>
        </g>
        <g transform="matrix(0.141946,0.529751,-0.529751,0.141946,728.875,69.1813)">
            <path d="M1036.51,288.426C1186.91,350.633 1334.07,435.594 1463.14,534.737C1484.46,696.087 1484.46,866.009 1463.14,1027.36C1334.07,1126.5 1186.91,1211.46 1036.51,1273.67C886.117,1211.46 738.961,1126.5 609.89,1027.36C588.565,866.009 588.565,696.087 609.89,534.737C738.961,435.594 886.117,350.633 1036.51,288.426Z" style="fill:none;stroke:rgb(74,176,253);stroke-width:127.64px;"/>
        </g>
        <g transform="matrix(0.141946,0.529751,-0.529751,0.141946,637.269,-272.695)">
            <path d="M1036.51,288.426C1186.91,350.633 1334.07,435.594 1463.14,534.737C1484.46,696.087 1484.46,866.009 1463.14,1027.36C1334.07,1126.5 1186.91,1211.46 1036.51,1273.67C886.117,1211.46 738.961,1126.5 609.89,1027.36C588.565,866.009 588.565,696.087 609.89,534.737C738.961,435.594 886.117,350.633 1036.51,288.426Z" style="fill:none;stroke:rgb(74,176,253);stroke-width:127.64px;"/>
        </g>
    </g>
</svg>
