<svg clip-rule="evenodd" fill-rule="evenodd" stroke-linecap="round" stroke-linejoin="round" stroke-miterlimit="1.5" viewBox="-102.4 -102.4 1228.8 1228.8" xmlns="http://www.w3.org/2000/svg"><g fill="#0a0a0a" stroke="#4ab0fd" stroke-width="96.2"><path d="m1036.51 288.426c150.4 62.207 297.56 147.168 426.63 246.311 21.32 161.35 21.32 331.272 0 492.623-129.07 99.14-276.23 184.1-426.63 246.31-150.393-62.21-297.549-147.17-426.62-246.31-21.325-161.351-21.325-331.273 0-492.623 129.071-99.143 276.227-184.104 426.62-246.311z" transform="matrix(0 .498952 -.498952 0 1094.4699 -227.0216)"/><path d="m1036.51 288.426c150.4 62.207 297.56 147.168 426.63 246.311 21.32 161.35 21.32 331.272 0 492.623-129.07 99.14-276.23 184.1-426.63 246.31-150.393-62.21-297.549-147.17-426.62-246.31-21.325-161.351-21.325-331.273 0-492.623 129.071-99.143 276.227-184.104 426.62-246.311z" transform="matrix(0 .498952 -.498952 0 708.933 -3.2612)"/><path d="m1036.51 288.426c150.4 62.207 297.56 147.168 426.63 246.311 21.32 161.35 21.32 331.272 0 492.623-129.07 99.14-276.23 184.1-426.63 246.31-150.393-62.21-297.549-147.17-426.62-246.31-21.325-161.351-21.325-331.273 0-492.623 129.071-99.143 276.227-184.104 426.62-246.311z" transform="matrix(0 .498952 -.498952 0 1090.8605 216.6814)"/></g></svg>